<svg id="Layer_1" data-name="Layer 1" xmlns="http://www.w3.org/2000/svg" viewBox="0 0 1517.71 302.28"><defs><style>.cls-1{fill:#231f20;}.cls-2{fill:#c11f41;}</style></defs><title>banner</title><path id="dog_shape" data-name="dog shape" class="cls-1" d="M1475.81,249.46c-15.47-2.51-43.81,5.73-51.08-5.29-3.59-5.43-1.94-13.42-4-20.63-5.28-18.25-5.77-37.54-12.58-53.85a409.87,409.87,0,0,0-19.24-39.45h0c-5.67-10.27-11.63-20.19-17.5-29.24-6.19-9.54-12.88-18.77-17.62-29.95-3.81-9-10.5-21-9.31-32.71.53-5.13,6.29-1.81,5.16-12.82-.46-4.4-21.11-23.23-26.3-23.33-3.57-.06-2.76,1.54-6.21.7-3.1-.75-1.15-2.4-8.65-2.88-6.14,2.88-23.93,10.59-28.13,14.85-2.89,2.94.59,5.31-3.29,8.43-6.62,5.33-24.73,8-28.45,14.8.15,6.81,11.79,26.8,16.61,28.18l14.59-.75c6.2.85,10.27,2.62,16.11,3.52,2.64,4.61,2.73,15.36,1.25,21.64-3.39,14.45-11.46,23.43-14.09,39-1.75,10.36,1,22.71,4.28,29.19l5.79,9.06q.26,10.06.5,20.13v42.27l-.75,14.85c-1.28,7.93,1.89,17.89-.76,24.66-2.92,7.48-12,3-12.08,15.6,4.5,4.14,14.9,5.36,20.13.76,2.16-1.9,2.2-6.11,4.79-7.55.7-.52,13-1.25,14.59-.76l4,3c-4.41,4-15.21,4.92-17.11,11.08-4,13,19.21,6.53,23.4,5.53,3.94.25,7.9-.87,11.84-.62,12.75-2.09,26.17-2.26,38.24-4.66,5.72-1.14,12-.89,16.86-3,2.09-1.6,6.37-7.5,8.47-9.09,6.32-4.62,32.14-9.31,32.24-9.31,1.8,0,7.21-4.45,38.27-6,4.46-.33,9-.12,11.93-.13,4.9,0,20.55,1.91,22.32-1.36C1503.83,257,1486.51,251.19,1475.81,249.46Zm-156.27,11.83-9.06,1.76-3.52,1.76-1-1.26c-.89-2.22,1.42-8.85,3.27-9.56.88-4.31-1.2-10.25-.25-15.86l4.53-38c1.46,1,1.48,3.13,2.27,4.78.68,1.12,1.36,2.24,2,3.36l2.45,5.7c-.06,3.67-.45,8.59.26,12.41,1.09,5.8,3.31,9.86,4.46,14.68C1325.93,245.09,1321.38,260,1319.54,261.29Z" transform="translate(7.68 2)"/><path id="leash_end" data-name="leash end" class="cls-1" d="M1235.84,161.71c.92-.93,1.07-1.08,1.19-2,0-.32-.08-.47-.28-1.16a2.83,2.83,0,0,0-1.16-.81,2.05,2.05,0,0,0-1,0c.34-3.81,2.66-5.22,1.8-9.64-.12-.36-.38-1-.84-1.15a6.13,6.13,0,0,0-2.51.51c-.2,0-.32.14-.52.18l.91,2.45a8.29,8.29,0,0,0,.92-.31,4.26,4.26,0,0,1-1.22,3c-.26.21-.55.41-.9.64a4,4,0,0,1-1.38.43,4.26,4.26,0,0,1-1.47-.18,2.6,2.6,0,0,1-.84-.47,1.58,1.58,0,0,1-.47-.68l-.3-.89.66-.18-.66-2.73-3.57.83c.28,3.65,1.92,6.56,5.35,7.14,1.19,6-4,14.72,4.77,14.86a5.12,5.12,0,0,0,1-.39c2.34-1.29,1.75-.83,3.39-2.76C1237.74,166.19,1236.83,163.89,1235.84,161.71Zm-2.66,6.94a2.79,2.79,0,0,1-.91-2.05c.1-1.49.2-3.11.3-4.59l2.67,5.94C1234.55,168.65,1233.78,169,1233.18,168.65Z" transform="translate(7.68 2)"/><path id="leash" class="cls-2" d="M1262.49,52.72a9.48,9.48,0,0,1,2.36-.11c.53.13.8.51,1.12.69.84.8.78,2.13.18,3.62a19.24,19.24,0,0,1-3.41,2.11,37.15,37.15,0,0,0-6.92,4.57,28.29,28.29,0,0,0-3.24,3.87c-12,14.46-15.06,32.09-17.51,54.77-.28,2.54-.63,8.76-.74,14.66-.15,7.9.7,13.42-1.08,14.38a4.63,4.63,0,0,1-3.14,1,2,2,0,0,1-1.51-.66c-2.29-4.21-2.19-26.91-1.17-31.75.51-4.65,1.36-9.25,2.34-14C1235.35,84.47,1241.13,60.94,1262.49,52.72Z" transform="translate(7.68 2)"/><path id="leash-2" data-name="leash" class="cls-2" d="M1260.64,156.55c-1.48-7.18,9.26-23.35,12-29.13q3.09-8.65,6.17-17.32c5.06-13.24,9.91-26.26,8.62-43.31-1-.27-2.06-.45-3.12-.64-1.3-.25-2.59-.48-3.88-.63-.31,0-.65,0-1,0,5,16.1-1.82,28.43-6.2,39.81-2.63,6.82-4.94,13.72-7.41,20.59-7,14.61-15.44,29.56-20.36,45.7-5.16,16.94-.8,41.38,17.28,44.19,15,2.33,20.69-12.17,17.28-23.6C1276,178.52,1263.62,171,1260.64,156.55Zm11.41,54.74c-7.87,4.07-13.07-1.66-15.42-6.78-5.61-12.23-5.28-24-1.24-37.16C1262.48,173.1,1276.7,199.28,1272.05,211.29Z" transform="translate(7.68 2)"/><path id="dog_shape-2" data-name="dog shape" class="cls-1" d="M243.89,248.46c-15.47-2.51-43.82,5.73-51.08-5.29-3.59-5.43-1.95-13.42-4-20.63C183.5,204.29,183,185,176.2,168.69A409.87,409.87,0,0,0,157,129.24h0C151.29,119,145.33,109,139.46,100c-6.19-9.54-12.88-18.77-17.62-29.95-3.81-9-10.5-21-9.31-32.71.53-5.13,6.29-1.81,5.16-12.82-.46-4.4-21.11-23.23-26.3-23.33-3.57-.06-2.76,1.54-6.21.7C82.08,1.13,84-.52,76.53-1,70.39,1.88,52.6,9.59,48.4,13.85c-2.89,2.94.59,5.31-3.29,8.43-6.62,5.33-24.73,8-28.45,14.8.15,6.81,11.79,26.8,16.61,28.18l14.59-.75c6.2.85,10.27,2.62,16.11,3.52,2.64,4.61,2.73,15.36,1.25,21.64-3.39,14.45-11.46,23.43-14.09,39-1.75,10.36,1,22.71,4.28,29.19l5.79,9.06q.25,10.06.5,20.13v42.27L61,244.18c-1.28,7.93,1.89,17.89-.76,24.66-2.93,7.48-12,3-12.08,15.6,4.5,4.14,14.9,5.36,20.13.76,2.16-1.9,2.2-6.11,4.78-7.55.71-.52,13-1.25,14.6-.76q2,1.51,4,3c-4.41,4-15.21,4.92-17.12,11.08-4,13,19.22,6.53,23.41,5.53,3.94.25,7.9-.87,11.84-.62,12.75-2.09,26.17-2.26,38.23-4.66,5.73-1.14,12-.89,16.86-3,2.1-1.6,6.38-7.5,8.48-9.09,6.32-4.62,32.14-9.31,32.24-9.31,1.8,0,7.21-4.45,38.27-6,4.46-.33,9-.12,11.93-.13,4.9,0,20.55,1.91,22.32-1.36C271.91,256,254.59,250.19,243.89,248.46ZM87.62,260.29l-9.06,1.76L75,263.81l-1-1.26c-.89-2.22,1.42-8.85,3.27-9.56.88-4.31-1.2-10.25-.25-15.86l4.53-38c1.46,1,1.48,3.13,2.27,4.78.67,1.12,1.35,2.24,2,3.36l2.45,5.7c-.06,3.67-.45,8.59.26,12.41,1.09,5.8,3.31,9.86,4.46,14.68C94,244.09,89.45,259,87.62,260.29Z" transform="translate(7.68 2)"/><path id="leash_end-2" data-name="leash end" class="cls-1" d="M3.92,160.71c.91-.93,1.07-1.08,1.19-2,0-.32-.08-.47-.28-1.16a2.83,2.83,0,0,0-1.16-.81,2.05,2.05,0,0,0-1,0c.34-3.81,2.66-5.22,1.8-9.64-.12-.36-.38-1-.84-1.15a6.13,6.13,0,0,0-2.51.51c-.2,0-.32.14-.52.18l.9,2.45a7.8,7.8,0,0,0,.93-.31,4.35,4.35,0,0,1-1.22,3c-.26.21-.55.41-.9.64a4.1,4.1,0,0,1-1.38.43,4.26,4.26,0,0,1-1.47-.18,2.6,2.6,0,0,1-.84-.47,1.58,1.58,0,0,1-.47-.68l-.3-.89.65-.18-.65-2.73-3.57.83c.28,3.65,1.92,6.56,5.35,7.14,1.19,6-4,14.72,4.77,14.86a5.12,5.12,0,0,0,1-.39c2.34-1.29,1.75-.83,3.39-2.76C5.82,165.19,4.91,162.89,3.92,160.71Zm-2.66,6.94a2.79,2.79,0,0,1-.91-2.05c.1-1.49.2-3.11.3-4.59L3.32,167C2.63,167.65,1.86,168,1.26,167.65Z" transform="translate(7.68 2)"/><path id="leash-3" data-name="leash" class="cls-2" d="M30.57,51.72a9.48,9.48,0,0,1,2.36-.11c.53.13.8.51,1.12.69.84.8.78,2.13.18,3.62A19.24,19.24,0,0,1,30.82,58,37.15,37.15,0,0,0,23.9,62.6a28.29,28.29,0,0,0-3.24,3.87C8.65,80.93,5.6,98.56,3.15,121.24c-.28,2.54-.63,8.76-.74,14.66-.15,7.9.69,13.42-1.08,14.38a4.63,4.63,0,0,1-3.14,1,2,2,0,0,1-1.51-.66c-2.29-4.21-2.19-26.91-1.17-31.75.51-4.65,1.36-9.25,2.34-14C3.43,83.47,9.21,59.94,30.57,51.72Z" transform="translate(7.68 2)"/><path id="leash-4" data-name="leash" class="cls-2" d="M28.72,155.55c-1.48-7.18,9.26-23.35,12-29.13q3.09-8.65,6.17-17.32C52,95.86,56.83,82.84,55.54,65.79c-1-.27-2.06-.45-3.12-.64-1.3-.25-2.59-.48-3.88-.63-.31,0-.65,0-1,0,5,16.1-1.82,28.43-6.2,39.81-2.63,6.82-4.94,13.72-7.41,20.59-7,14.61-15.44,29.56-20.36,45.7-5.16,16.94-.8,41.38,17.28,44.19,15,2.33,20.69-12.17,17.28-23.6C44.07,177.52,31.7,170,28.72,155.55Zm11.41,54.74c-7.87,4.07-13.08-1.66-15.42-6.78-5.61-12.23-5.28-24-1.24-37.16C30.56,172.1,44.78,198.28,40.13,210.29Z" transform="translate(7.68 2)"/><path id="dog_shape-3" data-name="dog shape" class="cls-1" d="M490.32,249.73c-15.47-2.5-43.82,5.73-51.08-5.28-3.59-5.43-1.95-13.43-4-20.64-5.28-18.25-5.77-37.54-12.58-53.85a412.17,412.17,0,0,0-19.24-39.45h0c-5.66-10.26-11.62-20.19-17.49-29.24C379.7,91.73,373,82.5,368.27,71.32c-3.81-9-10.5-21-9.31-32.71.53-5.13,6.29-1.81,5.16-12.82-.46-4.41-21.11-23.24-26.3-23.33-3.57-.06-2.76,1.54-6.21.7C328.51,2.4,330.46.75,323,.28,316.82,3.15,299,10.87,294.83,15.13c-2.89,2.93.59,5.3-3.29,8.43-6.62,5.32-24.73,8-28.45,14.79.15,6.81,11.79,26.8,16.61,28.19l14.59-.76c6.2.85,10.27,2.63,16.11,3.53,2.64,4.61,2.73,15.36,1.25,21.64-3.39,14.44-11.46,23.42-14.09,39-1.75,10.36,1,22.71,4.28,29.19l5.79,9.06q.25,10.06.5,20.13v42.28l-.75,14.85c-1.28,7.93,1.89,17.89-.76,24.66-2.93,7.48-12.05,3-12.08,15.6,4.5,4.14,14.9,5.36,20.13.75,2.16-1.89,2.2-6.11,4.78-7.55.71-.51,13-1.25,14.6-.75l4,3c-4.41,4-15.21,4.91-17.12,11.07-4,13,19.22,6.53,23.41,5.54,3.94.25,7.9-.87,11.84-.62,12.75-2.1,26.17-2.27,38.23-4.67,5.73-1.14,12-.88,16.86-3,2.1-1.59,6.38-7.49,8.48-9.09,6.32-4.61,32.14-9.3,32.24-9.3,1.8,0,7.21-4.46,38.27-6,4.46-.34,9-.12,11.93-.13,4.9,0,20.55,1.91,22.32-1.37C518.34,257.26,501,251.47,490.32,249.73ZM334.05,261.56,325,263.32l-3.52,1.76c-.34-.42-.67-.84-1-1.25-.89-2.23,1.42-8.85,3.27-9.57.88-4.3-1.2-10.25-.25-15.85l4.53-38c1.46,1,1.48,3.14,2.27,4.78.67,1.12,1.35,2.24,2,3.36l2.45,5.71c-.06,3.67-.45,8.59.26,12.41,1.09,5.79,3.31,9.86,4.46,14.68C340.43,245.36,335.88,260.3,334.05,261.56Z" transform="translate(7.68 2)"/><path id="leash_end-3" data-name="leash end" class="cls-1" d="M250.35,162c.91-.92,1.07-1.07,1.19-2,0-.31-.08-.47-.28-1.16a2.71,2.71,0,0,0-1.16-.8,2.19,2.19,0,0,0-1-.05c.34-3.81,2.66-5.21,1.8-9.64-.12-.36-.38-1-.84-1.14a6.09,6.09,0,0,0-2.51.5c-.2.05-.32.14-.52.19l.9,2.44a7.8,7.8,0,0,0,.93-.31,4.38,4.38,0,0,1-1.22,3c-.26.2-.55.4-.9.63a3.89,3.89,0,0,1-1.38.43,4.26,4.26,0,0,1-1.47-.18,2.41,2.41,0,0,1-.84-.46,1.71,1.71,0,0,1-.47-.68l-.3-.89.65-.18-.65-2.73-3.57.83c.28,3.65,1.92,6.56,5.35,7.13,1.19,6-4,14.72,4.77,14.86a4.54,4.54,0,0,0,1-.39c2.34-1.28,1.75-.82,3.39-2.75C252.25,166.47,251.34,164.16,250.35,162Zm-2.66,6.94a2.77,2.77,0,0,1-.91-2c.1-1.48.2-3.1.3-4.59l2.67,5.95C249.06,168.92,248.29,169.22,247.69,168.92Z" transform="translate(7.68 2)"/><path id="leash-5" data-name="leash" class="cls-2" d="M277,53a9.48,9.48,0,0,1,2.36-.11c.53.13.8.52,1.12.7.84.79.78,2.12.18,3.62a19.24,19.24,0,0,1-3.41,2.11,37.07,37.07,0,0,0-6.92,4.56,27.78,27.78,0,0,0-3.24,3.88c-12,14.45-15.06,32.09-17.51,54.76-.28,2.55-.63,8.77-.74,14.67-.15,7.9.69,13.41-1.08,14.38a4.68,4.68,0,0,1-3.14,1,2,2,0,0,1-1.51-.66c-2.29-4.22-2.19-26.91-1.17-31.75.51-4.66,1.36-9.25,2.34-14C249.86,84.74,255.64,61.21,277,53Z" transform="translate(7.68 2)"/><path id="leash-6" data-name="leash" class="cls-2" d="M275.15,156.83c-1.48-7.18,9.26-23.35,12-29.13l6.17-17.33c5.06-13.23,9.91-26.26,8.62-43.31-1-.27-2.06-.44-3.12-.64-1.3-.24-2.59-.47-3.88-.63-.31,0-.65,0-1,0,5,16.11-1.82,28.44-6.2,39.81-2.63,6.83-4.94,13.73-7.41,20.59-7,14.61-15.44,29.56-20.36,45.7-5.16,16.94-.8,41.38,17.28,44.19,15,2.34,20.69-12.17,17.28-23.6C290.5,178.79,278.13,171.27,275.15,156.83Zm11.41,54.73c-7.87,4.07-13.08-1.66-15.42-6.78-5.61-12.22-5.28-24-1.24-37.16C277,173.38,291.21,199.55,286.56,211.56Z" transform="translate(7.68 2)"/><path id="dog_shape-4" data-name="dog shape" class="cls-1" d="M735.81,247.46c-15.47-2.51-43.81,5.73-51.08-5.29-3.59-5.43-1.94-13.42-4-20.63-5.28-18.25-5.77-37.54-12.58-53.85a409.87,409.87,0,0,0-19.24-39.45h0C643.21,118,637.25,108,631.38,99,625.19,89.45,618.5,80.22,613.76,69c-3.81-9-10.5-21-9.31-32.71.53-5.13,6.29-1.81,5.16-12.82C609.15,19.11,588.5.28,583.31.18c-3.57-.06-2.76,1.54-6.21.7C574,.13,576-1.52,568.45-2,562.31.88,544.52,8.59,540.32,12.85c-2.89,2.94.59,5.31-3.29,8.43-6.62,5.33-24.73,8-28.45,14.8.15,6.81,11.79,26.8,16.61,28.18l14.59-.75c6.2.85,10.27,2.62,16.11,3.52,2.64,4.61,2.73,15.36,1.25,21.64-3.39,14.45-11.46,23.43-14.09,39-1.75,10.36,1,22.71,4.28,29.19l5.79,9.06q.25,10.06.5,20.13v42.27l-.75,14.85c-1.28,7.93,1.89,17.89-.76,24.66-2.92,7.48-12.05,3-12.08,15.6,4.5,4.14,14.9,5.36,20.13.76,2.16-1.9,2.2-6.11,4.79-7.55.7-.52,13-1.25,14.59-.76l4,3c-4.41,4-15.21,4.92-17.11,11.08-4,13,19.21,6.53,23.4,5.53,3.94.25,7.9-.87,11.84-.62,12.75-2.09,26.17-2.26,38.24-4.66,5.72-1.14,12-.89,16.86-3,2.09-1.6,6.37-7.5,8.47-9.09,6.32-4.62,32.14-9.31,32.24-9.31,1.8,0,7.21-4.45,38.27-6,4.46-.33,9-.12,11.93-.13,4.9,0,20.55,1.91,22.32-1.36C763.83,255,746.51,249.19,735.81,247.46ZM579.54,259.29l-9.06,1.76L567,262.81l-1-1.26c-.89-2.22,1.42-8.85,3.27-9.56.88-4.31-1.2-10.25-.25-15.86l4.53-38c1.46,1,1.48,3.13,2.27,4.78.68,1.12,1.36,2.24,2,3.36l2.45,5.7c-.06,3.67-.45,8.59.26,12.41,1.09,5.8,3.31,9.86,4.46,14.68C585.93,243.09,581.38,258,579.54,259.29Z" transform="translate(7.68 2)"/><path id="leash_end-4" data-name="leash end" class="cls-1" d="M495.84,159.71c.92-.93,1.07-1.08,1.19-2,0-.32-.08-.47-.28-1.16a2.83,2.83,0,0,0-1.16-.81,2.05,2.05,0,0,0-1,0c.34-3.81,2.66-5.22,1.8-9.64-.12-.36-.38-1-.84-1.15a6.13,6.13,0,0,0-2.51.51c-.2,0-.32.14-.52.18l.91,2.45a8.29,8.29,0,0,0,.92-.31,4.26,4.26,0,0,1-1.22,3c-.26.21-.55.41-.9.64a4,4,0,0,1-1.38.43,4.26,4.26,0,0,1-1.47-.18,2.6,2.6,0,0,1-.84-.47,1.58,1.58,0,0,1-.47-.68l-.3-.89.66-.18-.66-2.73-3.57.83c.28,3.65,1.92,6.56,5.35,7.14,1.19,6-4,14.72,4.77,14.86a5.12,5.12,0,0,0,1-.39c2.34-1.29,1.75-.83,3.39-2.76C497.74,164.19,496.83,161.89,495.84,159.71Zm-2.66,6.94a2.79,2.79,0,0,1-.91-2.05c.1-1.49.2-3.11.3-4.59l2.67,5.94C494.55,166.65,493.78,167,493.18,166.65Z" transform="translate(7.68 2)"/><path id="leash-7" data-name="leash" class="cls-2" d="M522.49,50.72a9.48,9.48,0,0,1,2.36-.11c.53.13.8.51,1.12.69.84.8.78,2.13.18,3.62A19.24,19.24,0,0,1,522.74,57a37.15,37.15,0,0,0-6.92,4.57,28.29,28.29,0,0,0-3.24,3.87c-12,14.46-15.06,32.09-17.51,54.77-.28,2.54-.63,8.76-.74,14.66-.15,7.9.7,13.42-1.08,14.38a4.63,4.63,0,0,1-3.14,1,2,2,0,0,1-1.51-.66c-2.29-4.21-2.19-26.91-1.17-31.75.51-4.65,1.36-9.25,2.34-14C495.35,82.47,501.13,58.94,522.49,50.72Z" transform="translate(7.68 2)"/><path id="leash-8" data-name="leash" class="cls-2" d="M520.64,154.55c-1.48-7.18,9.26-23.35,12-29.13q3.09-8.65,6.17-17.32c5.06-13.24,9.91-26.26,8.62-43.31-1-.27-2.06-.45-3.12-.64-1.3-.25-2.59-.48-3.88-.63-.31,0-.65,0-1,0,5,16.1-1.82,28.43-6.2,39.81-2.63,6.82-4.94,13.72-7.41,20.59-7,14.61-15.44,29.56-20.36,45.7-5.16,16.94-.8,41.38,17.28,44.19,15,2.33,20.69-12.17,17.28-23.6C536,176.52,523.62,169,520.64,154.55Zm11.41,54.74c-7.87,4.07-13.07-1.66-15.42-6.78-5.61-12.23-5.28-24-1.24-37.16C522.48,171.1,536.7,197.28,532.05,209.29Z" transform="translate(7.68 2)"/><path id="dog_shape-5" data-name="dog shape" class="cls-1" d="M1228.27,249.46c-15.47-2.51-43.82,5.73-51.09-5.29-3.58-5.43-1.94-13.42-4-20.63-5.28-18.25-5.78-37.54-12.59-53.85a405.23,405.23,0,0,0-19.24-39.45h0c-5.66-10.27-11.62-20.19-17.5-29.24-6.18-9.54-12.87-18.77-17.61-29.95-3.81-9-10.51-21-9.31-32.71.52-5.13,6.29-1.81,5.15-12.82-.45-4.4-21.1-23.23-26.3-23.33-3.56-.06-2.76,1.54-6.2.7-3.1-.75-1.16-2.4-8.65-2.88-6.15,2.88-23.94,10.59-28.14,14.85-2.89,2.94.6,5.31-3.29,8.43-6.62,5.33-24.73,8-28.45,14.8.16,6.81,11.8,26.8,16.61,28.18l14.6-.75c6.2.85,10.27,2.62,16.1,3.52,2.65,4.61,2.74,15.36,1.26,21.64-3.4,14.45-11.46,23.43-14.09,39-1.75,10.36,1,22.71,4.28,29.19q2.88,4.53,5.78,9.06l.51,20.13v42.27q-.37,7.42-.76,14.85c-1.28,7.93,1.89,17.89-.75,24.66-2.93,7.48-12.06,3-12.08,15.6,4.5,4.14,14.89,5.36,20.13.76,2.15-1.9,2.2-6.11,4.78-7.55.7-.52,13-1.25,14.6-.76l4,3c-4.4,4-15.21,4.92-17.11,11.08-4,13,19.21,6.53,23.4,5.53,4,.25,7.9-.87,11.85-.62,12.74-2.09,26.17-2.26,38.23-4.66,5.73-1.14,12-.89,16.86-3,2.1-1.6,6.38-7.5,8.47-9.09,6.32-4.62,32.15-9.31,32.24-9.31,1.8,0,7.21-4.45,38.27-6,4.46-.33,9-.12,11.93-.13,4.9,0,20.56,1.91,22.33-1.36C1256.29,257,1239,251.19,1228.27,249.46ZM1072,261.29l-9.06,1.76-3.53,1.76-1-1.26c-.89-2.22,1.42-8.85,3.27-9.56.88-4.31-1.21-10.25-.25-15.86l4.53-38c1.45,1,1.48,3.13,2.26,4.78l2,3.36,2.45,5.7c-.06,3.67-.46,8.59.26,12.41,1.08,5.8,3.31,9.86,4.45,14.68C1078.38,245.09,1073.83,260,1072,261.29Z" transform="translate(7.68 2)"/><path id="leash_end-5" data-name="leash end" class="cls-1" d="M989.29,161.71c.92-.93,1.08-1.08,1.2-2,0-.32-.08-.47-.29-1.16a2.7,2.7,0,0,0-1.16-.81,2,2,0,0,0-.95,0c.34-3.81,2.65-5.22,1.8-9.64-.13-.36-.38-1-.85-1.15a6.09,6.09,0,0,0-2.5.51c-.2,0-.33.14-.53.18l.91,2.45a7.1,7.1,0,0,0,.92-.31,4.26,4.26,0,0,1-1.22,3,9.73,9.73,0,0,1-.9.64,4,4,0,0,1-1.37.43,4.24,4.24,0,0,1-1.47-.18,2.49,2.49,0,0,1-.84-.47,1.67,1.67,0,0,1-.48-.68l-.29-.89.65-.18-.65-2.73-3.57.83c.27,3.65,1.92,6.56,5.35,7.14,1.18,6-4,14.72,4.77,14.86a5.4,5.4,0,0,0,1-.39c2.33-1.29,1.74-.83,3.39-2.76C991.2,166.19,990.28,163.89,989.29,161.71Zm-2.66,6.94a2.83,2.83,0,0,1-.91-2.05c.1-1.49.2-3.11.3-4.59L988.7,168C988,168.65,987.24,169,986.63,168.65Z" transform="translate(7.68 2)"/><path id="leash-9" data-name="leash" class="cls-2" d="M1015,52.72a9.46,9.46,0,0,1,2.36-.11c.52.13.79.51,1.11.69.84.8.79,2.13.18,3.62a18.83,18.83,0,0,1-3.4,2.11,36.83,36.83,0,0,0-6.92,4.57,26.92,26.92,0,0,0-3.24,3.87C993,81.93,990,99.56,987.52,122.24c-.27,2.54-.62,8.76-.73,14.66-.15,7.9.69,13.42-1.08,14.38a4.63,4.63,0,0,1-3.14,1,2.07,2.07,0,0,1-1.52-.66c-2.29-4.21-2.18-26.91-1.17-31.75.52-4.65,1.36-9.25,2.34-14C987.8,84.47,993.58,60.94,1015,52.72Z" transform="translate(7.68 2)"/><path id="leash-10" data-name="leash" class="cls-2" d="M1013.09,156.55c-1.47-7.18,9.26-23.35,12-29.13q3.07-8.65,6.17-17.32c5-13.24,9.91-26.26,8.61-43.31-1-.27-2.06-.45-3.11-.64-1.31-.25-2.59-.48-3.88-.63-.31,0-.66,0-1,0,5,16.1-1.83,28.43-6.21,39.81-2.62,6.82-4.93,13.72-7.4,20.59-7,14.61-15.44,29.56-20.36,45.7-5.17,16.94-.81,41.38,17.27,44.19,15,2.33,20.7-12.17,17.28-23.6C1028.44,178.52,1016.07,171,1013.09,156.55Zm11.42,54.74c-7.88,4.07-13.08-1.66-15.43-6.78-5.6-12.23-5.28-24-1.23-37.16C1014.94,173.1,1029.15,199.28,1024.51,211.29Z" transform="translate(7.68 2)"/><path id="dog_shape-6" data-name="dog shape" class="cls-1" d="M980.67,249.46c-15.48-2.51-43.82,5.73-51.09-5.29-3.58-5.43-1.94-13.42-4-20.63-5.28-18.25-5.78-37.54-12.59-53.85a407.54,407.54,0,0,0-19.24-39.45h0C888.07,120,882.11,110,876.23,101,870,91.45,863.36,82.22,858.62,71c-3.81-9-10.51-21-9.31-32.71.52-5.13,6.29-1.81,5.15-12.82-.45-4.4-21.11-23.23-26.3-23.33-3.56-.06-2.76,1.54-6.2.7-3.1-.75-1.16-2.4-8.65-2.88-6.15,2.88-23.94,10.59-28.14,14.85-2.89,2.94.6,5.31-3.29,8.43-6.62,5.33-24.73,8-28.45,14.8.16,6.81,11.79,26.8,16.61,28.18l14.6-.75c6.2.85,10.27,2.62,16.1,3.52,2.65,4.61,2.74,15.36,1.26,21.64-3.4,14.45-11.46,23.43-14.09,39-1.75,10.36,1,22.71,4.28,29.19q2.88,4.53,5.78,9.06l.51,20.13v42.27q-.39,7.42-.76,14.85c-1.28,7.93,1.89,17.89-.75,24.66-2.93,7.48-12.06,3-12.08,15.6,4.5,4.14,14.89,5.36,20.13.76,2.15-1.9,2.19-6.11,4.78-7.55.7-.52,13-1.25,14.6-.76l4,3c-4.4,4-15.21,4.92-17.11,11.08-4,13,19.21,6.53,23.4,5.53,3.94.25,7.9-.87,11.85-.62,12.74-2.09,26.17-2.26,38.23-4.66,5.73-1.14,12-.89,16.86-3,2.1-1.6,6.37-7.5,8.47-9.09,6.32-4.62,32.15-9.31,32.24-9.31,1.8,0,7.21-4.45,38.27-6,4.46-.33,9-.12,11.93-.13,4.9,0,20.56,1.91,22.33-1.36C1008.69,257,991.37,251.19,980.67,249.46ZM824.4,261.29l-9.06,1.76-3.53,1.76-1-1.26c-.9-2.22,1.42-8.85,3.27-9.56.88-4.31-1.21-10.25-.25-15.86l4.53-38c1.45,1,1.48,3.13,2.26,4.78l2,3.36,2.45,5.7c-.06,3.67-.46,8.59.26,12.41,1.08,5.8,3.31,9.86,4.45,14.68C830.78,245.09,826.23,260,824.4,261.29Z" transform="translate(7.68 2)"/><path id="leash_end-6" data-name="leash end" class="cls-1" d="M740.69,161.71c.92-.93,1.08-1.08,1.19-2,0-.32-.07-.47-.28-1.16a2.7,2.7,0,0,0-1.16-.81,2,2,0,0,0-1,0c.34-3.81,2.65-5.22,1.8-9.64-.13-.36-.38-1-.85-1.15a6.09,6.09,0,0,0-2.5.51c-.2,0-.33.14-.53.18l.91,2.45a7.1,7.1,0,0,0,.92-.31,4.26,4.26,0,0,1-1.22,3,9.73,9.73,0,0,1-.9.64,4,4,0,0,1-1.37.43,4.32,4.32,0,0,1-1.48-.18,2.44,2.44,0,0,1-.83-.47,1.58,1.58,0,0,1-.48-.68l-.29-.89.65-.18-.66-2.73-3.56.83c.27,3.65,1.92,6.56,5.35,7.14,1.18,6-4,14.72,4.77,14.86a5.4,5.4,0,0,0,1-.39c2.33-1.29,1.74-.83,3.39-2.76C742.6,166.19,741.68,163.89,740.69,161.71ZM738,168.65a2.83,2.83,0,0,1-.91-2.05c.1-1.49.2-3.11.3-4.59q1.33,3,2.68,5.94C739.41,168.65,738.63,169,738,168.65Z" transform="translate(7.68 2)"/><path id="leash-11" data-name="leash" class="cls-2" d="M767.35,52.72a9.46,9.46,0,0,1,2.36-.11c.52.13.79.51,1.11.69.84.8.79,2.13.18,3.62A18.83,18.83,0,0,1,767.6,59a36.83,36.83,0,0,0-6.92,4.57,26.92,26.92,0,0,0-3.24,3.87c-12,14.46-15.06,32.09-17.52,54.77-.27,2.54-.62,8.76-.73,14.66-.15,7.9.69,13.42-1.08,14.38a4.63,4.63,0,0,1-3.14,1,2.07,2.07,0,0,1-1.52-.66c-2.29-4.21-2.18-26.91-1.17-31.75.52-4.65,1.36-9.25,2.34-14C740.2,84.47,746,60.94,767.35,52.72Z" transform="translate(7.68 2)"/><path id="leash-12" data-name="leash" class="cls-2" d="M765.49,156.55c-1.47-7.18,9.26-23.35,12-29.13q3.08-8.65,6.17-17.32c5-13.24,9.9-26.26,8.61-43.31-1-.27-2.06-.45-3.11-.64-1.31-.25-2.59-.48-3.88-.63-.31,0-.66,0-1,0,5,16.1-1.83,28.43-6.21,39.81-2.62,6.82-4.93,13.72-7.4,20.59-7,14.61-15.44,29.56-20.36,45.7-5.17,16.94-.81,41.38,17.27,44.19,15,2.33,20.7-12.17,17.28-23.6C780.84,178.52,768.47,171,765.49,156.55Zm11.42,54.74c-7.88,4.07-13.08-1.66-15.43-6.78-5.6-12.23-5.28-24-1.23-37.16C767.34,173.1,781.55,199.28,776.91,211.29Z" transform="translate(7.68 2)"/></svg>