<svg id="Layer_1" data-name="Layer 1" xmlns="http://www.w3.org/2000/svg" viewBox="0 0 280.09 294.02"><defs><style>.cls-1{fill:#231f20;}.cls-2{fill:#c11f41;}</style></defs><title>banner-small</title><path id="dog_shape" data-name="dog shape" class="cls-1" d="M259.56,248.47c-15.16-2.46-42.94,5.61-50.07-5.18-3.51-5.32-1.9-13.16-3.94-20.23-5.18-17.88-5.66-36.79-12.33-52.77a401.86,401.86,0,0,0-18.86-38.67h0C168.81,121.55,163,111.83,157.21,103c-6.07-9.35-12.62-18.39-17.26-29.35-3.74-8.81-10.3-20.6-9.13-32.06.51-5,6.17-1.77,5.05-12.56-.44-4.32-20.68-22.78-25.77-22.87-3.5-.06-2.71,1.51-6.08.69-3-.74-1.14-2.36-8.48-2.83C89.52,6.8,72.08,14.36,68,18.54c-2.84,2.88.58,5.2-3.23,8.26C58.25,32,40.5,34.67,36.86,41.3,37,48,48.41,67.57,53.13,68.92l14.31-.74c6.08.84,10.06,2.58,15.78,3.46,2.59,4.51,2.68,15,1.23,21.21-3.32,14.15-11.23,23-13.81,38.22-1.71,10.16,1,22.26,4.2,28.61l5.67,8.88q.24,9.87.49,19.73v41.43q-.36,7.28-.74,14.55c-1.25,7.78,1.86,17.54-.74,24.17-2.87,7.34-11.81,2.93-11.84,15.29,4.41,4.06,14.6,5.25,19.73.74,2.12-1.85,2.16-6,4.69-7.4.69-.5,12.74-1.22,14.3-.74l3.95,3c-4.32,3.92-14.91,4.82-16.77,10.86-3.93,12.72,18.83,6.4,22.94,5.42,3.86.25,7.74-.85,11.6-.6,12.49-2.06,25.65-2.23,37.47-4.58,5.62-1.11,11.78-.87,16.53-3,2-1.56,6.25-7.34,8.3-8.91,6.19-4.52,31.5-9.12,31.6-9.12,1.76,0,7.06-4.36,37.51-5.9,4.37-.33,8.78-.12,11.69-.13,4.8,0,20.14,1.87,21.88-1.34C287,255.85,270,250.17,259.56,248.47ZM106.4,260.06l-8.87,1.72-3.46,1.73-1-1.23c-.88-2.18,1.39-8.67,3.2-9.37.86-4.22-1.18-10-.24-15.54l4.44-37.24c1.42,1,1.45,3.07,2.22,4.68l2,3.29,2.4,5.6c0,3.6-.44,8.42.26,12.16,1.06,5.68,3.24,9.67,4.36,14.39C112.66,244.18,108.2,258.83,106.4,260.06Z" transform="translate(-13.01 -3.98)"/><path id="leash_end" data-name="leash end" class="cls-1" d="M24.37,162.47c.9-.91,1.05-1.06,1.17-2,0-.31-.08-.47-.28-1.14a2.65,2.65,0,0,0-1.14-.79,1.93,1.93,0,0,0-.93,0c.33-3.74,2.6-5.11,1.76-9.45-.12-.35-.37-1-.83-1.12a6,6,0,0,0-2.45.49c-.2,0-.32.14-.51.18l.89,2.4a7.36,7.36,0,0,0,.9-.31,4.21,4.21,0,0,1-1.2,3c-.25.2-.54.39-.88.62a4,4,0,0,1-1.35.43,4.62,4.62,0,0,1-1.44-.18,2.48,2.48,0,0,1-.82-.46,1.62,1.62,0,0,1-.46-.66l-.3-.88.65-.18-.65-2.67-3.49.81c.27,3.58,1.88,6.43,5.24,7,1.16,5.87-3.89,14.43,4.67,14.57a5,5,0,0,0,1-.38c2.28-1.26,1.71-.81,3.32-2.7C26.24,166.86,25.34,164.6,24.37,162.47Zm-2.61,6.8a2.77,2.77,0,0,1-.89-2c.1-1.46.2-3,.3-4.5q1.3,2.91,2.62,5.82C23.11,169.27,22.35,169.56,21.76,169.27Z" transform="translate(-13.01 -3.98)"/><path id="leash" class="cls-2" d="M50.49,55.65a9.14,9.14,0,0,1,2.32-.11c.51.13.77.51,1.09.68.82.78.77,2.09.18,3.55a19.07,19.07,0,0,1-3.34,2.07A35.46,35.46,0,0,0,44,66.31a27.27,27.27,0,0,0-3.18,3.8C29,84.28,26,101.56,23.62,123.78c-.27,2.49-.62,8.59-.73,14.38-.14,7.74.68,13.14-1.05,14.09a4.54,4.54,0,0,1-3.08,1,2.05,2.05,0,0,1-1.49-.65c-2.24-4.13-2.13-26.37-1.14-31.12.5-4.56,1.33-9.06,2.29-13.68C23.89,86.76,29.56,63.7,50.49,55.65Z" transform="translate(-13.01 -3.98)"/><path id="leash-2" data-name="leash" class="cls-2" d="M48.68,157.41c-1.45-7,9.07-22.88,11.79-28.54l6-17c5-13,9.71-25.74,8.44-42.45-1-.26-2-.44-3-.63-1.28-.24-2.54-.47-3.81-.61-.3,0-.64,0-.94,0,4.87,15.78-1.79,27.86-6.09,39-2.57,6.69-4.83,13.45-7.25,20.18-6.87,14.32-15.13,29-20,44.79-5.06,16.6-.79,40.55,16.93,43.31,14.73,2.29,20.28-11.93,16.94-23.14C63.72,178.94,51.6,171.57,48.68,157.41Zm11.19,53.65c-7.73,4-12.82-1.63-15.12-6.65-5.5-12-5.18-23.53-1.21-36.42C50.48,173.63,64.42,199.28,59.87,211.06Z" transform="translate(-13.01 -3.98)"/></svg>